<?xml version="1.0" standalone="no"?>
<!DOCTYPE svg PUBLIC "-//W3C//DTD SVG 20010904//EN"
 "http://www.w3.org/TR/2001/REC-SVG-20010904/DTD/svg10.dtd">
<svg version="1.0" xmlns="http://www.w3.org/2000/svg"
 width="489.000000pt" height="101.000000pt" viewBox="0 0 489.000000 101.000000"
 preserveAspectRatio="xMidYMid meet">

<g transform="translate(0.000000,101.000000) scale(0.100000,-0.100000)"
fill="#000000" stroke="none">
<path d="M30 505 l0 -485 1920 0 1920 0 0 485 0 485 -1920 0 -1920 0 0 -485z
m3810 0 l0 -455 -1895 0 -1895 0 0 455 0 455 1895 0 1895 0 0 -455z"/>
<path d="M2571 862 c-6 -20 -33 -138 -61 -262 -28 -123 -53 -226 -55 -229 -7
-7 -58 150 -145 447 l-21 72 -73 0 -73 0 -56 -187 c-78 -258 -102 -329 -110
-316 -6 9 -117 485 -117 500 0 2 -391 3 -870 3 l-870 0 0 -375 c0 -206 3 -375
8 -375 4 -1 383 -2 842 -3 l835 -2 5 135 5 135 35 -130 35 -129 95 3 c52 1 97
4 99 6 1 2 30 95 63 206 32 112 63 210 68 218 11 20 5 36 83 -224 l63 -210 95
4 c51 2 96 7 99 11 3 5 43 157 90 339 l85 331 5 -342 5 -343 33 1 c17 1 55 2
82 3 l50 1 -2 373 -3 372 -157 2 -158 2 -9 -37z m-2244 0 c7 -4 36 -115 64
-245 29 -131 56 -234 61 -229 4 4 34 111 66 237 l59 230 64 3 64 3 59 -228
c32 -125 62 -235 66 -242 10 -19 19 12 72 264 23 110 47 203 53 207 12 9 94 9
116 0 17 -8 24 27 -102 -519 l-42 -183 -83 0 -83 0 -11 43 c-44 164 -92 333
-103 360 -17 39 -11 53 -77 -204 -27 -105 -52 -194 -55 -197 -11 -11 -143 -8
-154 3 -6 6 -29 89 -51 185 -127 553 -119 506 -92 513 29 8 96 7 109 -1z
m1278 -27 c71 -36 125 -97 109 -123 -6 -9 -30 -28 -53 -41 l-43 -24 -41 46
c-34 37 -51 46 -88 52 -97 14 -181 -36 -208 -124 -7 -23 -12 -79 -12 -123 0
-67 5 -90 26 -135 34 -67 67 -86 157 -87 76 -1 108 16 139 73 10 19 22 38 27
43 11 11 112 -37 112 -53 0 -20 -40 -88 -71 -118 -51 -52 -86 -64 -185 -69
-131 -6 -193 14 -260 82 -64 66 -84 121 -91 247 -7 119 7 180 57 257 63 98
139 134 276 129 77 -2 99 -7 149 -32z"/>
<path d="M2952 892 c-9 -7 -12 -89 -10 -376 l3 -368 75 -1 75 -1 3 120 3 121
38 37 39 38 15 -23 c8 -13 47 -80 87 -149 39 -69 75 -128 78 -132 9 -9 161
-20 174 -12 10 7 -7 37 -150 267 l-104 167 74 87 c40 48 99 117 131 154 31 37
57 70 57 72 0 2 -40 4 -88 5 l-88 1 -127 -150 c-113 -134 -127 -147 -128 -122
-1 15 -4 82 -8 148 l-6 120 -65 3 c-36 1 -71 -2 -78 -6z"/>
<path d="M3575 888 c-3 -7 -4 -177 -3 -377 l3 -364 80 0 80 0 0 374 0 374 -78
3 c-56 2 -79 -1 -82 -10z"/>
<path d="M4238 957 c-132 -45 -225 -129 -286 -257 -33 -67 -37 -85 -40 -171
-7 -159 34 -264 144 -369 237 -228 617 -158 762 139 37 75 37 77 37 201 0 124
0 126 -37 203 -43 90 -123 176 -204 219 -115 62 -258 75 -376 35z m263 -18
c33 -8 57 -22 85 -51 22 -22 34 -42 28 -45 -6 -2 -31 -16 -55 -31 l-43 -28
-56 19 c-30 10 -76 21 -101 24 -41 5 -51 11 -78 49 -29 42 -29 44 -11 54 54
29 127 32 231 9z m155 -74 c49 -38 100 -94 125 -140 18 -33 8 -25 -65 50 -48
50 -92 96 -98 103 -17 20 3 14 38 -13z m-281 -56 c32 -6 76 -17 96 -26 35 -13
40 -21 69 -100 17 -47 28 -93 25 -102 -3 -9 -33 -44 -67 -78 l-63 -62 -65 14
c-36 8 -82 17 -103 20 -34 5 -41 12 -58 49 -10 24 -23 66 -30 94 l-11 52 68
75 c38 41 71 75 74 75 4 0 33 -5 65 -11z m-356 -79 c-6 -25 -16 -52 -23 -60
-8 -8 -23 -33 -35 -55 l-22 -40 7 35 c8 45 72 176 81 167 1 -1 -3 -23 -8 -47z
m112 -59 c24 -1 27 -6 31 -45 3 -24 17 -69 32 -101 26 -56 26 -57 7 -84 -10
-14 -30 -50 -45 -79 l-26 -52 -43 6 c-73 12 -87 21 -112 76 -47 101 -41 166
26 259 19 27 25 29 62 25 23 -3 54 -5 68 -5z m685 -27 c21 -51 28 -158 15
-228 -13 -68 -13 -69 -35 -60 -12 4 -16 19 -16 53 0 27 -6 68 -13 93 -12 38
-12 53 2 111 9 37 20 67 24 67 4 0 15 -16 23 -36z m-134 -85 c55 -11 58 -13
67 -48 5 -20 12 -60 16 -88 8 -63 -6 -91 -84 -167 l-49 -49 -58 8 c-87 11
-104 21 -104 65 0 20 -5 62 -11 94 l-10 57 68 74 c51 56 73 74 88 70 11 -3 46
-10 77 -16z m-596 -258 c47 -5 55 -10 93 -58 23 -29 52 -60 66 -69 20 -13 25
-25 25 -55 0 -37 -2 -39 -31 -39 -37 0 -131 54 -175 102 -47 50 -64 80 -64
111 0 24 3 28 18 22 9 -4 40 -10 68 -14z m417 -86 c20 -8 57 -15 82 -15 50 0
55 -9 34 -67 -15 -45 -89 -74 -200 -80 -111 -7 -131 3 -127 58 3 39 5 41 56
59 30 11 68 28 85 39 38 25 28 24 70 6z"/>
</g>
</svg>
